<svg aria-roledescription="er" role="graphics-document document" viewBox="0 0 602.354248046875 190" style="max-width: 100%;" xmlns="http://www.w3.org/2000/svg" width="100%" id="graph-div" height="100%" xmlns:xlink="http://www.w3.org/1999/xlink"><style>@import url("https://cdnjs.cloudflare.com/ajax/libs/font-awesome/6.2.0/css/all.min.css");'</style><style>#graph-div{font-family:"trebuchet ms",verdana,arial,sans-serif;font-size:12px;fill:#333;}#graph-div .error-icon{fill:hsl(60, 90%, 100%);}#graph-div .error-text{fill:rgb(0, 0, 0);stroke:rgb(0, 0, 0);}#graph-div .edge-thickness-normal{stroke-width:2px;}#graph-div .edge-thickness-thick{stroke-width:3.5px;}#graph-div .edge-pattern-solid{stroke-dasharray:0;}#graph-div .edge-pattern-dashed{stroke-dasharray:3;}#graph-div .edge-pattern-dotted{stroke-dasharray:2;}#graph-div .marker{fill:#0b0b0b;stroke:#0b0b0b;}#graph-div .marker.cross{stroke:#0b0b0b;}#graph-div svg{font-family:"trebuchet ms",verdana,arial,sans-serif;font-size:12px;}#graph-div .entityBox{fill:#ECECFE;stroke:#BCBCFB;}#graph-div .attributeBoxOdd{fill:#ffffff;stroke:#BCBCFB;}#graph-div .attributeBoxEven{fill:#f2f2f2;stroke:#BCBCFB;}#graph-div .relationshipLabelBox{fill:hsl(60, 90%, 100%);opacity:0.7;background-color:hsl(60, 90%, 100%);}#graph-div .relationshipLabelBox rect{opacity:0.5;}#graph-div .relationshipLine{stroke:#0b0b0b;}#graph-div .entityTitleText{text-anchor:middle;font-size:18px;fill:#333;}#graph-div #MD_PARENT_START{fill:#f5f5f5!important;stroke:#0b0b0b!important;stroke-width:1;}#graph-div #MD_PARENT_END{fill:#f5f5f5!important;stroke:#0b0b0b!important;stroke-width:1;}#graph-div :root{--mermaid-font-family:"trebuchet ms",verdana,arial,sans-serif;}</style><g></g><defs><marker orient="auto" markerHeight="240" markerWidth="190" refY="7" refX="0" id="MD_PARENT_START"><path d="M 18,7 L9,13 L1,7 L9,1 Z"></path></marker></defs><defs><marker orient="auto" markerHeight="28" markerWidth="20" refY="7" refX="19" id="MD_PARENT_END"><path d="M 18,7 L9,13 L1,7 L9,1 Z"></path></marker></defs><defs><marker orient="auto" markerHeight="18" markerWidth="18" refY="9" refX="0" id="ONLY_ONE_START"><path d="M9,0 L9,18 M15,0 L15,18" fill="none" stroke="gray"></path></marker></defs><defs><marker orient="auto" markerHeight="18" markerWidth="18" refY="9" refX="18" id="ONLY_ONE_END"><path d="M3,0 L3,18 M9,0 L9,18" fill="none" stroke="gray"></path></marker></defs><defs><marker orient="auto" markerHeight="18" markerWidth="30" refY="9" refX="0" id="ZERO_OR_ONE_START"><circle r="6" cy="9" cx="21" fill="white" stroke="gray"></circle><path d="M9,0 L9,18" fill="none" stroke="gray"></path></marker></defs><defs><marker orient="auto" markerHeight="18" markerWidth="30" refY="9" refX="30" id="ZERO_OR_ONE_END"><circle r="6" cy="9" cx="9" fill="white" stroke="gray"></circle><path d="M21,0 L21,18" fill="none" stroke="gray"></path></marker></defs><defs><marker orient="auto" markerHeight="36" markerWidth="45" refY="18" refX="18" id="ONE_OR_MORE_START"><path d="M0,18 Q 18,0 36,18 Q 18,36 0,18 M42,9 L42,27" fill="none" stroke="gray"></path></marker></defs><defs><marker orient="auto" markerHeight="36" markerWidth="45" refY="18" refX="27" id="ONE_OR_MORE_END"><path d="M3,9 L3,27 M9,18 Q27,0 45,18 Q27,36 9,18" fill="none" stroke="gray"></path></marker></defs><defs><marker orient="auto" markerHeight="36" markerWidth="57" refY="18" refX="18" id="ZERO_OR_MORE_START"><circle r="6" cy="18" cx="48" fill="white" stroke="gray"></circle><path d="M0,18 Q18,0 36,18 Q18,36 0,18" fill="none" stroke="gray"></path></marker></defs><defs><marker orient="auto" markerHeight="36" markerWidth="57" refY="18" refX="39" id="ZERO_OR_MORE_END"><circle r="6" cy="18" cx="9" fill="white" stroke="gray"></circle><path d="M21,18 Q39,0 57,18 Q39,36 21,18" fill="none" stroke="gray"></path></marker></defs><g transform="translate(20,20 )" id="entity-BOUGHT-e750c70a-d8a7-5df0-9edc-309028346997"><rect height="150" width="113.30064392089844" y="0" x="0" class="er entityBox"></rect><text style="dominant-baseline: middle; text-anchor: middle; font-size: 12px;" transform="translate(56.65032196044922,12)" y="0" x="0" id="text-entity-BOUGHT-e750c70a-d8a7-5df0-9edc-309028346997" class="er entityLabel">BOUGHT</text><rect height="21" width="35.26939392089844" y="24" x="0" class="er attributeBoxOdd"></rect><text style="dominant-baseline: middle; font-size: 10.2px;" transform="translate(5,34.5)" y="0" x="0" id="text-entity-BOUGHT-e750c70a-d8a7-5df0-9edc-309028346997-attr-1-type" class="er entityLabel">int</text><rect height="21" width="78.03125" y="24" x="35.26939392089844" class="er attributeBoxOdd"></rect><text style="dominant-baseline: middle; font-size: 10.2px;" transform="translate(40.26939392089844,34.5)" y="0" x="0" id="text-entity-BOUGHT-e750c70a-d8a7-5df0-9edc-309028346997-attr-1-name" class="er entityLabel">id</text><rect height="21" width="35.26939392089844" y="45" x="0" class="er attributeBoxEven"></rect><text style="dominant-baseline: middle; font-size: 10.2px;" transform="translate(5,55.5)" y="0" x="0" id="text-entity-BOUGHT-e750c70a-d8a7-5df0-9edc-309028346997-attr-2-type" class="er entityLabel">string</text><rect height="21" width="78.03125" y="45" x="35.26939392089844" class="er attributeBoxEven"></rect><text style="dominant-baseline: middle; font-size: 10.2px;" transform="translate(40.26939392089844,55.5)" y="0" x="0" id="text-entity-BOUGHT-e750c70a-d8a7-5df0-9edc-309028346997-attr-2-name" class="er entityLabel">productType</text><rect height="21" width="35.26939392089844" y="66" x="0" class="er attributeBoxOdd"></rect><text style="dominant-baseline: middle; font-size: 10.2px;" transform="translate(5,76.5)" y="0" x="0" id="text-entity-BOUGHT-e750c70a-d8a7-5df0-9edc-309028346997-attr-3-type" class="er entityLabel">float</text><rect height="21" width="78.03125" y="66" x="35.26939392089844" class="er attributeBoxOdd"></rect><text style="dominant-baseline: middle; font-size: 10.2px;" transform="translate(40.26939392089844,76.5)" y="0" x="0" id="text-entity-BOUGHT-e750c70a-d8a7-5df0-9edc-309028346997-attr-3-name" class="er entityLabel">pricePerUnit</text><rect height="21" width="35.26939392089844" y="87" x="0" class="er attributeBoxEven"></rect><text style="dominant-baseline: middle; font-size: 10.2px;" transform="translate(5,97.5)" y="0" x="0" id="text-entity-BOUGHT-e750c70a-d8a7-5df0-9edc-309028346997-attr-4-type" class="er entityLabel">int</text><rect height="21" width="78.03125" y="87" x="35.26939392089844" class="er attributeBoxEven"></rect><text style="dominant-baseline: middle; font-size: 10.2px;" transform="translate(40.26939392089844,97.5)" y="0" x="0" id="text-entity-BOUGHT-e750c70a-d8a7-5df0-9edc-309028346997-attr-4-name" class="er entityLabel">amountOfUnits</text><rect height="21" width="35.26939392089844" y="108" x="0" class="er attributeBoxOdd"></rect><text style="dominant-baseline: middle; font-size: 10.2px;" transform="translate(5,118.5)" y="0" x="0" id="text-entity-BOUGHT-e750c70a-d8a7-5df0-9edc-309028346997-attr-5-type" class="er entityLabel">date</text><rect height="21" width="78.03125" y="108" x="35.26939392089844" class="er attributeBoxOdd"></rect><text style="dominant-baseline: middle; font-size: 10.2px;" transform="translate(40.26939392089844,118.5)" y="0" x="0" id="text-entity-BOUGHT-e750c70a-d8a7-5df0-9edc-309028346997-attr-5-name" class="er entityLabel">boughtDate</text><rect height="21" width="35.26939392089844" y="129" x="0" class="er attributeBoxEven"></rect><text style="dominant-baseline: middle; font-size: 10.2px;" transform="translate(5,139.5)" y="0" x="0" id="text-entity-BOUGHT-e750c70a-d8a7-5df0-9edc-309028346997-attr-6-type" class="er entityLabel">date</text><rect height="21" width="78.03125" y="129" x="35.26939392089844" class="er attributeBoxEven"></rect><text style="dominant-baseline: middle; font-size: 10.2px;" transform="translate(40.26939392089844,139.5)" y="0" x="0" id="text-entity-BOUGHT-e750c70a-d8a7-5df0-9edc-309028346997-attr-6-name" class="er entityLabel">expiryDate</text></g><g transform="translate(233.30064392089844,20 )" id="entity-SOLD-367b146b-e5f0-5998-938b-9ecb63a1bf1f"><rect height="150" width="113.30064392089844" y="0" x="0" class="er entityBox"></rect><text style="dominant-baseline: middle; text-anchor: middle; font-size: 12px;" transform="translate(56.65032196044922,12)" y="0" x="0" id="text-entity-SOLD-367b146b-e5f0-5998-938b-9ecb63a1bf1f" class="er entityLabel">SOLD</text><rect height="21" width="35.26939392089844" y="24" x="0" class="er attributeBoxOdd"></rect><text style="dominant-baseline: middle; font-size: 10.2px;" transform="translate(5,34.5)" y="0" x="0" id="text-entity-SOLD-367b146b-e5f0-5998-938b-9ecb63a1bf1f-attr-1-type" class="er entityLabel">int</text><rect height="21" width="78.03125" y="24" x="35.26939392089844" class="er attributeBoxOdd"></rect><text style="dominant-baseline: middle; font-size: 10.2px;" transform="translate(40.26939392089844,34.5)" y="0" x="0" id="text-entity-SOLD-367b146b-e5f0-5998-938b-9ecb63a1bf1f-attr-1-name" class="er entityLabel">id</text><rect height="21" width="35.26939392089844" y="45" x="0" class="er attributeBoxEven"></rect><text style="dominant-baseline: middle; font-size: 10.2px;" transform="translate(5,55.5)" y="0" x="0" id="text-entity-SOLD-367b146b-e5f0-5998-938b-9ecb63a1bf1f-attr-2-type" class="er entityLabel">string</text><rect height="21" width="78.03125" y="45" x="35.26939392089844" class="er attributeBoxEven"></rect><text style="dominant-baseline: middle; font-size: 10.2px;" transform="translate(40.26939392089844,55.5)" y="0" x="0" id="text-entity-SOLD-367b146b-e5f0-5998-938b-9ecb63a1bf1f-attr-2-name" class="er entityLabel">productType</text><rect height="21" width="35.26939392089844" y="66" x="0" class="er attributeBoxOdd"></rect><text style="dominant-baseline: middle; font-size: 10.2px;" transform="translate(5,76.5)" y="0" x="0" id="text-entity-SOLD-367b146b-e5f0-5998-938b-9ecb63a1bf1f-attr-3-type" class="er entityLabel">float</text><rect height="21" width="78.03125" y="66" x="35.26939392089844" class="er attributeBoxOdd"></rect><text style="dominant-baseline: middle; font-size: 10.2px;" transform="translate(40.26939392089844,76.5)" y="0" x="0" id="text-entity-SOLD-367b146b-e5f0-5998-938b-9ecb63a1bf1f-attr-3-name" class="er entityLabel">pricePerUnit</text><rect height="21" width="35.26939392089844" y="87" x="0" class="er attributeBoxEven"></rect><text style="dominant-baseline: middle; font-size: 10.2px;" transform="translate(5,97.5)" y="0" x="0" id="text-entity-SOLD-367b146b-e5f0-5998-938b-9ecb63a1bf1f-attr-4-type" class="er entityLabel">int</text><rect height="21" width="78.03125" y="87" x="35.26939392089844" class="er attributeBoxEven"></rect><text style="dominant-baseline: middle; font-size: 10.2px;" transform="translate(40.26939392089844,97.5)" y="0" x="0" id="text-entity-SOLD-367b146b-e5f0-5998-938b-9ecb63a1bf1f-attr-4-name" class="er entityLabel">amountOfUnits</text><rect height="21" width="35.26939392089844" y="108" x="0" class="er attributeBoxOdd"></rect><text style="dominant-baseline: middle; font-size: 10.2px;" transform="translate(5,118.5)" y="0" x="0" id="text-entity-SOLD-367b146b-e5f0-5998-938b-9ecb63a1bf1f-attr-5-type" class="er entityLabel">date</text><rect height="21" width="78.03125" y="108" x="35.26939392089844" class="er attributeBoxOdd"></rect><text style="dominant-baseline: middle; font-size: 10.2px;" transform="translate(40.26939392089844,118.5)" y="0" x="0" id="text-entity-SOLD-367b146b-e5f0-5998-938b-9ecb63a1bf1f-attr-5-name" class="er entityLabel">soldDate</text><rect height="21" width="35.26939392089844" y="129" x="0" class="er attributeBoxEven"></rect><text style="dominant-baseline: middle; font-size: 10.2px;" transform="translate(5,139.5)" y="0" x="0" id="text-entity-SOLD-367b146b-e5f0-5998-938b-9ecb63a1bf1f-attr-6-type" class="er entityLabel">date</text><rect height="21" width="78.03125" y="129" x="35.26939392089844" class="er attributeBoxEven"></rect><text style="dominant-baseline: middle; font-size: 10.2px;" transform="translate(40.26939392089844,139.5)" y="0" x="0" id="text-entity-SOLD-367b146b-e5f0-5998-938b-9ecb63a1bf1f-attr-6-name" class="er entityLabel">expiryDate</text></g><g transform="translate(446.6012878417969,72.5 )" id="entity-SYSTEMDATE-07077332-adc2-5c6e-a9b7-b669e7f8f475"><rect height="45" width="135.7529296875" y="0" x="0" class="er entityBox"></rect><text style="dominant-baseline: middle; text-anchor: middle; font-size: 12px;" transform="translate(67.87646484375,12)" y="0" x="0" id="text-entity-SYSTEMDATE-07077332-adc2-5c6e-a9b7-b669e7f8f475" class="er entityLabel">SYSTEM_DATE</text><rect height="21" width="30.179367065429688" y="24" x="0" class="er attributeBoxOdd"></rect><text style="dominant-baseline: middle; font-size: 10.2px;" transform="translate(5,34.5)" y="0" x="0" id="text-entity-SYSTEMDATE-07077332-adc2-5c6e-a9b7-b669e7f8f475-attr-1-type" class="er entityLabel">date</text><rect height="21" width="105.57356262207031" y="24" x="30.179367065429688" class="er attributeBoxOdd"></rect><text style="dominant-baseline: middle; font-size: 10.2px;" transform="translate(35.17936706542969,34.5)" y="0" x="0" id="text-entity-SYSTEMDATE-07077332-adc2-5c6e-a9b7-b669e7f8f475-attr-1-name" class="er entityLabel">system_current_date</text></g></svg>